# Blender 3.3.0
# www.blender.org
mtllib block.mtl
o Cube
v 1.000000 1.000000 -1.000000
v 1.000000 -1.000000 -1.000000
v 1.000000 1.000000 1.000000
v 1.000000 -1.000000 1.000000
v -1.000000 1.000000 -1.000000
v -1.000000 -1.000000 -1.000000
v -1.000000 1.000000 1.000000
v -1.000000 -1.000000 1.000000
vn -0.0000 1.0000 -0.0000
vn -0.0000 -0.0000 1.0000
vn -1.0000 -0.0000 -0.0000
vn -0.0000 -1.0000 -0.0000
vn 1.0000 -0.0000 -0.0000
vn -0.0000 -0.0000 -1.0000
vt 0.667397 0.500000
vt 0.333979 0.500000
vt 0.666368 0.750000
vt 0.334962 0.750000
vt 0.999118 0.500000
vt 0.666039 0.250000
vt -0.001120 0.500000
vt 0.334962 0.250000
vt 0.999118 0.750000
vt 0.667040 1.000000
vt 0.667205 0.004486
vt 0.336964 1.000000
vt 0.335963 0.004171
vt -0.000119 0.750000
s 0
usemtl Material.001
f 1/1/1 5/5/1 7/9/1 3/3/1
f 4/4/2 3/3/2 7/10/2 8/12/2
f 8/13/3 7/11/3 5/6/3 6/8/3
f 6/7/4 2/2/4 4/4/4 8/14/4
f 2/2/5 1/1/5 3/3/5 4/4/5
f 6/8/6 5/6/6 1/1/6 2/2/6
